<?xml version="1.0" standalone="no"?>
<!DOCTYPE svg PUBLIC "-//W3C//DTD SVG 20010904//EN"
 "http://www.w3.org/TR/2001/REC-SVG-20010904/DTD/svg10.dtd">
<svg version="1.0" xmlns="http://www.w3.org/2000/svg"
 width="512.000000pt" height="512.000000pt" viewBox="0 0 512.000000 512.000000"
 preserveAspectRatio="xMidYMid meet">
<metadata>
Created by potrace 1.14, written by Peter Selinger 2001-2017
</metadata>
<g transform="translate(0.000000,512.000000) scale(0.100000,-0.100000)"
fill="#000000" stroke="none">
<path d="M2339 5036 c-2 -2 -34 -7 -71 -10 -37 -4 -75 -8 -85 -10 -10 -2 -40
-7 -68 -10 -192 -26 -485 -120 -700 -226 -132 -64 -365 -203 -385 -229 -3 -3
-23 -20 -45 -36 -78 -58 -180 -150 -259 -234 -28 -30 -58 -62 -66 -70 -24 -25
-143 -181 -178 -232 -157 -233 -295 -588 -327 -844 -4 -27 -10 -77 -15 -110
-8 -64 -6 -384 4 -425 3 -14 8 -45 11 -69 3 -25 8 -54 10 -65 3 -12 7 -32 9
-46 27 -163 126 -421 234 -609 252 -441 662 -793 1152 -994 445 -181 934 -235
1425 -156 152 24 384 90 525 149 136 57 122 56 177 15 26 -21 62 -48 78 -60
94 -73 399 -302 413 -310 9 -5 19 -13 22 -16 3 -3 59 -46 125 -95 66 -49 126
-94 135 -101 8 -7 53 -40 100 -75 47 -34 91 -68 98 -75 7 -7 15 -13 16 -13 1
0 2 224 3 497 l0 498 -31 30 c-17 16 -42 37 -54 45 -62 40 -217 163 -215 170
2 5 14 20 29 35 l26 26 236 -176 c131 -97 244 -182 252 -188 8 -7 27 -20 43
-30 l27 -17 0 499 0 500 -82 62 c-46 34 -84 63 -85 63 -1 1 16 53 37 117 21
64 41 132 44 151 3 19 8 42 11 51 4 8 14 71 24 139 13 91 17 173 15 313 -1
105 -5 199 -7 210 -3 11 -8 45 -12 75 -41 314 -224 719 -450 996 -95 116 -287
305 -358 353 -12 7 -26 19 -32 26 -12 14 -200 140 -267 178 -228 131 -535 245
-788 291 -14 3 -34 7 -45 9 -11 3 -47 8 -80 12 -32 4 -68 9 -80 12 -24 6 -491
14 -496 9z m379 -830 c73 -9 115 -15 142 -21 14 -4 36 -8 50 -11 140 -27 381
-130 520 -222 382 -253 617 -663 624 -1091 2 -95 -7 -228 -13 -184 0 6 -9 14
-19 17 -10 4 -27 14 -38 24 -10 10 -73 58 -139 107 -66 49 -124 93 -130 97 -5
5 -28 22 -50 38 -22 17 -49 37 -60 45 -11 9 -29 22 -40 31 -55 40 -285 212
-311 232 -16 12 -56 43 -89 68 -33 25 -67 50 -75 57 -60 47 -208 157 -211 157
-3 0 -5 -224 -5 -498 l0 -499 60 -46 c34 -25 88 -66 121 -91 33 -25 65 -49 70
-53 6 -5 33 -25 60 -46 28 -20 61 -45 75 -56 14 -10 104 -77 200 -149 96 -72
188 -142 204 -154 16 -13 36 -28 45 -34 13 -10 11 -16 -17 -44 l-32 -31 -32
22 c-18 13 -38 28 -44 34 -13 12 -140 105 -163 120 -9 6 -18 13 -21 16 -3 3
-50 39 -105 80 -55 40 -104 77 -110 81 -5 5 -28 22 -50 38 -22 16 -44 33 -50
38 -28 22 -374 283 -423 318 l-57 42 1 -500 0 -500 85 -65 c46 -36 93 -71 103
-79 24 -17 19 -22 -25 -30 -125 -20 -423 -9 -554 20 -85 19 -120 28 -190 52
-158 52 -395 183 -490 269 -199 182 -278 282 -369 470 -66 136 -100 249 -122
402 -12 82 -10 265 4 333 7 36 15 79 17 96 8 54 62 209 105 294 153 311 432
563 775 699 58 23 114 44 123 46 9 2 46 11 82 20 91 24 162 35 255 42 44 3 81
6 82 7 5 4 184 -3 231 -8z"/>
</g>
</svg>
